<svg width="154" height="19" viewBox="0 0 154 19" fill="none" xmlns="http://www.w3.org/2000/svg">
<path d="M11.0039 12.2227H15.1055C15.0508 13.4102 14.7305 14.457 14.1445 15.3633C13.5586 16.2695 12.7461 16.9766 11.707 17.4844C10.6758 17.9844 9.45703 18.2344 8.05078 18.2344C6.91016 18.2344 5.89062 18.043 4.99219 17.6602C4.10156 17.2773 3.34375 16.7266 2.71875 16.0078C2.10156 15.2891 1.62891 14.418 1.30078 13.3945C0.980469 12.3711 0.820312 11.2188 0.820312 9.9375V9.01172C0.820312 7.73047 0.988281 6.57812 1.32422 5.55469C1.66797 4.52344 2.15234 3.64844 2.77734 2.92969C3.41016 2.20312 4.16797 1.64844 5.05078 1.26562C5.93359 0.882812 6.91406 0.691406 7.99219 0.691406C9.47656 0.691406 10.7305 0.957031 11.7539 1.48828C12.7773 2.01953 13.5703 2.75 14.1328 3.67969C14.6953 4.60156 15.0273 5.65234 15.1289 6.83203H11.0273C11.0117 6.19141 10.9023 5.65625 10.6992 5.22656C10.4961 4.78906 10.1758 4.46094 9.73828 4.24219C9.30078 4.02344 8.71875 3.91406 7.99219 3.91406C7.48438 3.91406 7.04297 4.00781 6.66797 4.19531C6.29297 4.38281 5.98047 4.67969 5.73047 5.08594C5.48047 5.49219 5.29297 6.01953 5.16797 6.66797C5.05078 7.30859 4.99219 8.08203 4.99219 8.98828V9.9375C4.99219 10.8438 5.04688 11.6172 5.15625 12.2578C5.26562 12.8984 5.44141 13.4219 5.68359 13.8281C5.92578 14.2344 6.23828 14.5352 6.62109 14.7305C7.01172 14.918 7.48828 15.0117 8.05078 15.0117C8.67578 15.0117 9.20312 14.9141 9.63281 14.7188C10.0625 14.5156 10.3945 14.2109 10.6289 13.8047C10.8633 13.3906 10.9883 12.8633 11.0039 12.2227ZM28.8042 14.8359V18H20.1792V14.8359H28.8042ZM21.6441 0.9375V18H17.5308V0.9375H21.6441ZM35.3897 0.9375V18H31.2881V0.9375H35.3897ZM48.4673 12.2227H52.5689C52.5142 13.4102 52.1939 14.457 51.608 15.3633C51.022 16.2695 50.2095 16.9766 49.1705 17.4844C48.1392 17.9844 46.9205 18.2344 45.5142 18.2344C44.3736 18.2344 43.3541 18.043 42.4556 17.6602C41.565 17.2773 40.8072 16.7266 40.1822 16.0078C39.565 15.2891 39.0923 14.418 38.7642 13.3945C38.4439 12.3711 38.2837 11.2188 38.2837 9.9375V9.01172C38.2837 7.73047 38.4517 6.57812 38.7877 5.55469C39.1314 4.52344 39.6158 3.64844 40.2408 2.92969C40.8736 2.20312 41.6314 1.64844 42.5142 1.26562C43.397 0.882812 44.3775 0.691406 45.4556 0.691406C46.94 0.691406 48.1939 0.957031 49.2173 1.48828C50.2408 2.01953 51.0337 2.75 51.5962 3.67969C52.1587 4.60156 52.4908 5.65234 52.5923 6.83203H48.4908C48.4752 6.19141 48.3658 5.65625 48.1627 5.22656C47.9595 4.78906 47.6392 4.46094 47.2017 4.24219C46.7642 4.02344 46.1822 3.91406 45.4556 3.91406C44.9478 3.91406 44.5064 4.00781 44.1314 4.19531C43.7564 4.38281 43.4439 4.67969 43.1939 5.08594C42.9439 5.49219 42.7564 6.01953 42.6314 6.66797C42.5142 7.30859 42.4556 8.08203 42.4556 8.98828V9.9375C42.4556 10.8438 42.5103 11.6172 42.6197 12.2578C42.7291 12.8984 42.9048 13.4219 43.147 13.8281C43.3892 14.2344 43.7017 14.5352 44.0845 14.7305C44.4752 14.918 44.9517 15.0117 45.5142 15.0117C46.1392 15.0117 46.6666 14.9141 47.0962 14.7188C47.5259 14.5156 47.858 14.2109 48.0923 13.8047C48.3267 13.3906 48.4517 12.8633 48.4673 12.2227ZM59.1075 0.9375V18H54.9942V0.9375H59.1075ZM69.2911 0.9375L62.6817 9.58594L58.8145 13.8164L58.0645 10.043L60.5372 6.29297L64.2169 0.9375H69.2911ZM64.4278 18L60.0216 10.3125L63.2208 7.95703L69.2911 18H64.4278Z" fill="white"/>
<path d="M86.3409 12.2344L90.2667 12.1875C90.1573 13.4844 89.7394 14.5898 89.0128 15.5039C88.2941 16.4102 87.3839 17.0977 86.2823 17.5664C85.1886 18.0352 84.0206 18.2578 82.7784 18.2344C81.5987 18.2109 80.6066 17.9688 79.8019 17.5078C78.9972 17.0391 78.3644 16.4141 77.9034 15.6328C77.4425 14.8438 77.1378 13.9609 76.9894 12.9844C76.8409 12 76.8331 10.9844 76.9659 9.9375L77.0948 9.01172C77.2511 7.92578 77.5402 6.88281 77.962 5.88281C78.3839 4.875 78.9347 3.97656 79.6144 3.1875C80.3019 2.39844 81.1183 1.78125 82.0636 1.33594C83.0089 0.882812 84.0792 0.667969 85.2745 0.691406C86.548 0.714844 87.63 0.980469 88.5206 1.48828C89.4191 1.99609 90.1144 2.70703 90.6066 3.62109C91.1066 4.53516 91.3878 5.61328 91.4503 6.85547L87.4542 6.84375C87.4777 6.24219 87.4191 5.72656 87.2784 5.29688C87.1378 4.86719 86.8878 4.53516 86.5284 4.30078C86.1769 4.05859 85.6808 3.92578 85.0402 3.90234C84.3448 3.87891 83.7628 4.02344 83.2941 4.33594C82.8331 4.64062 82.4581 5.05078 82.1691 5.56641C81.88 6.08203 81.6573 6.64062 81.5011 7.24219C81.3527 7.84375 81.2394 8.42578 81.1612 8.98828L81.0441 9.94922C80.9894 10.4102 80.9386 10.9297 80.8917 11.5078C80.8448 12.0781 80.8644 12.6289 80.9503 13.1602C81.0362 13.6836 81.2355 14.1211 81.548 14.4727C81.8605 14.8242 82.3487 15.0117 83.0128 15.0352C83.6378 15.0508 84.1808 14.9531 84.6417 14.7422C85.1027 14.5234 85.4737 14.2031 85.755 13.7812C86.0441 13.3516 86.2394 12.8359 86.3409 12.2344ZM94.7311 0.9375L101.048 0.949219C102.087 0.964844 103.044 1.15234 103.919 1.51172C104.794 1.87109 105.481 2.42188 105.981 3.16406C106.481 3.89844 106.692 4.83984 106.614 5.98828C106.544 6.93359 106.333 7.73047 105.981 8.37891C105.63 9.01953 105.153 9.56641 104.551 10.0195C103.95 10.4727 103.243 10.875 102.43 11.2266L100.977 11.9766H95.3053L95.8444 8.80078L99.6998 8.82422C100.215 8.81641 100.673 8.71484 101.071 8.51953C101.477 8.32422 101.809 8.04688 102.067 7.6875C102.325 7.32812 102.489 6.89062 102.559 6.375C102.622 5.95312 102.606 5.57812 102.512 5.25C102.419 4.91406 102.239 4.64844 101.973 4.45312C101.708 4.25781 101.356 4.14844 100.919 4.125L98.1998 4.11328L95.7858 18H91.778L94.7311 0.9375ZM100.93 18L98.5748 10.4531L102.641 10.4297L105.208 17.8008V18H100.93ZM116.785 4.72266L110.504 18H106.063L115.11 0.9375H117.945L116.785 4.72266ZM117.863 18L116.129 4.3125L116.223 0.9375H118.895L122.047 18H117.863ZM118.777 11.6367L118.215 14.8125H109.695L110.258 11.6367H118.777ZM130.765 0.9375L127.8 18H123.793L126.746 0.9375H130.765ZM135.968 8.03906L135.418 11.2031H127.824L128.375 8.03906H135.968ZM137.843 0.9375L137.293 4.11328H129.043L129.605 0.9375H137.843ZM148.226 0.9375L145.273 18H141.253L144.218 0.9375H148.226ZM153.206 0.9375L152.655 4.11328H138.792L139.355 0.9375H153.206Z" fill="#7241FF"/>
</svg>
