<svg width="359" height="341" viewBox="0 0 359 341" fill="none" xmlns="http://www.w3.org/2000/svg">
<g opacity="0.1">
<mask id="path-1-inside-1_7_138" fill="white">
<path fill-rule="evenodd" clip-rule="evenodd" d="M89.7368 0C89.7368 0 93.6978 36.9711 109.127 52.3998C124.555 67.8285 161.526 71.7895 161.526 71.7895C161.526 71.7895 124.555 75.7505 109.127 91.1792C93.6979 106.608 89.7368 143.579 89.7368 143.579C89.7368 143.579 85.7758 106.608 70.3472 91.1792C54.9185 75.7505 17.9474 71.7895 17.9474 71.7895C17.9474 71.7895 54.9185 67.8285 70.3472 52.3998C85.7758 36.9711 89.7368 0 89.7368 0ZM251.262 53.8422C251.262 53.8422 257.204 109.299 280.347 132.442C303.49 155.585 358.947 161.526 358.947 161.526C358.947 161.526 303.49 167.468 280.347 190.611C257.204 213.754 251.262 269.211 251.262 269.211C251.262 269.211 245.321 213.754 222.178 190.611C199.035 167.468 143.578 161.526 143.578 161.526C143.578 161.526 199.035 155.585 222.178 132.442C245.321 109.299 251.262 53.8422 251.262 53.8422ZM113.974 227.026C94.6881 207.74 89.7368 161.526 89.7368 161.526C89.7368 161.526 84.7856 207.74 65.4997 227.026C46.2139 246.312 0 251.263 0 251.263C0 251.263 46.2139 256.214 65.4997 275.5C84.7856 294.786 89.7368 341 89.7368 341C89.7368 341 94.6881 294.786 113.974 275.5C133.26 256.214 179.474 251.263 179.474 251.263C179.474 251.263 133.26 246.312 113.974 227.026Z"/>
</mask>
<path d="M89.7368 0L90.7312 -0.106528L88.7425 -0.106528L89.7368 0ZM161.526 71.7895L161.633 72.7838V70.7952L161.526 71.7895ZM109.127 91.1792L108.419 90.472L109.127 91.1792ZM89.7368 143.579L88.7425 143.685H90.7312L89.7368 143.579ZM70.3472 91.1792L69.6401 91.8863L70.3472 91.1792ZM17.9474 71.7895L17.8408 70.7952V72.7838L17.9474 71.7895ZM70.3472 52.3998L69.6401 51.6927L70.3472 52.3998ZM251.262 53.8422L252.257 53.7356H250.268L251.262 53.8422ZM358.947 161.526L359.053 162.521V160.532L358.947 161.526ZM251.262 269.211L250.268 269.317H252.257L251.262 269.211ZM222.178 190.611L222.885 189.904L222.178 190.611ZM143.578 161.526L143.472 160.532V162.521L143.578 161.526ZM89.7368 161.526L90.7311 161.42H88.7425L89.7368 161.526ZM113.974 227.026L113.267 227.733L113.974 227.026ZM65.4997 227.026L66.2069 227.733L65.4997 227.026ZM0 251.263L-0.106528 250.269L-0.106528 252.257L0 251.263ZM65.4997 275.5L66.2069 274.793L65.4997 275.5ZM89.7368 341L88.7425 341.107H90.7311L89.7368 341ZM113.974 275.5L113.267 274.793L113.974 275.5ZM179.474 251.263L179.58 252.257V250.269L179.474 251.263ZM109.834 51.6927C102.323 44.1816 97.5272 31.3133 94.6134 20.1614C93.1637 14.6126 92.1923 9.54018 91.5835 5.85482C91.2791 4.01275 91.0657 2.51876 90.9285 1.48692C90.8598 0.971031 90.8103 0.570779 90.778 0.300424C90.7619 0.16525 90.7501 0.0625603 90.7423 -0.00586241C90.7385 -0.0400734 90.7356 -0.0657165 90.7338 -0.0825687C90.7328 -0.0909948 90.7322 -0.0972231 90.7317 -0.101226C90.7315 -0.103227 90.7314 -0.104672 90.7313 -0.105557C90.7312 -0.105999 90.7312 -0.106242 90.7312 -0.106464C90.7312 -0.106566 90.7312 -0.106528 89.7368 0C88.7425 0.106528 88.7426 0.106848 88.7426 0.107309C88.7427 0.10765 88.7427 0.108252 88.7428 0.108934C88.7429 0.110299 88.7431 0.112225 88.7434 0.114709C88.744 0.119677 88.7447 0.126876 88.7458 0.136279C88.7478 0.155085 88.7509 0.182706 88.755 0.218919C88.7632 0.291343 88.7755 0.398138 88.7922 0.537515C88.8254 0.816264 88.8761 1.22538 88.9459 1.75056C89.0856 2.80084 89.3021 4.31576 89.6102 6.1808C90.2262 9.90968 91.2094 15.0444 92.6784 20.6669C95.6023 31.8578 100.502 45.1893 108.419 53.1069L109.834 51.6927ZM161.526 71.7895C161.633 70.7952 161.633 70.7952 161.633 70.7952C161.633 70.7951 161.632 70.7951 161.632 70.7951C161.631 70.795 161.63 70.7948 161.628 70.7946C161.624 70.7942 161.617 70.7935 161.609 70.7925C161.592 70.7907 161.566 70.7878 161.532 70.784C161.464 70.7762 161.361 70.7644 161.226 70.7483C160.956 70.716 160.555 70.6665 160.039 70.5979C159.008 70.4606 157.514 70.2472 155.671 69.9429C151.986 69.334 146.914 68.3626 141.365 66.9129C130.213 63.9991 117.345 59.2038 109.834 51.6927L108.419 53.1069C116.337 61.0245 129.669 65.924 140.859 68.8479C146.482 70.317 151.617 71.3001 155.346 71.9161C157.211 72.2242 158.725 72.4407 159.776 72.5804C160.301 72.6503 160.71 72.7009 160.989 72.7342C161.128 72.7508 161.235 72.7631 161.307 72.7713C161.344 72.7754 161.371 72.7785 161.39 72.7805C161.399 72.7816 161.407 72.7824 161.412 72.7829C161.414 72.7832 161.416 72.7834 161.417 72.7835C161.418 72.7836 161.419 72.7837 161.419 72.7837C161.419 72.7838 161.42 72.7838 161.526 71.7895ZM109.834 91.8863C117.345 84.3752 130.213 79.5798 141.365 76.6661C146.914 75.2163 151.986 74.2449 155.671 73.6361C157.514 73.3318 159.008 73.1183 160.039 72.9811C160.555 72.9125 160.956 72.863 161.226 72.8307C161.361 72.8145 161.464 72.8027 161.532 72.795C161.566 72.7911 161.592 72.7883 161.609 72.7864C161.617 72.7855 161.624 72.7848 161.628 72.7844C161.63 72.7841 161.631 72.784 161.632 72.7839C161.632 72.7838 161.633 72.7838 161.633 72.7838C161.633 72.7838 161.633 72.7838 161.526 71.7895C161.42 70.7952 161.419 70.7952 161.419 70.7952C161.419 70.7953 161.418 70.7953 161.417 70.7954C161.416 70.7956 161.414 70.7958 161.412 70.7961C161.407 70.7966 161.399 70.7974 161.39 70.7984C161.371 70.8005 161.344 70.8036 161.307 70.8076C161.235 70.8158 161.128 70.8281 160.989 70.8448C160.71 70.8781 160.301 70.9287 159.776 70.9985C158.725 71.1382 157.211 71.3547 155.346 71.6628C151.617 72.2788 146.482 73.262 140.859 74.731C129.669 77.655 116.337 82.5545 108.419 90.472L109.834 91.8863ZM89.7368 143.579C90.7312 143.685 90.7312 143.686 90.7312 143.685C90.7312 143.685 90.7312 143.685 90.7313 143.685C90.7314 143.684 90.7315 143.682 90.7317 143.68C90.7322 143.676 90.7328 143.67 90.7338 143.662C90.7356 143.645 90.7385 143.619 90.7423 143.585C90.7501 143.516 90.7619 143.414 90.778 143.279C90.8103 143.008 90.8598 142.608 90.9285 142.092C91.0657 141.06 91.2791 139.566 91.5835 137.724C92.1923 134.039 93.1637 128.966 94.6135 123.418C97.5272 112.266 102.323 99.3974 109.834 91.8863L108.419 90.472C100.502 98.3896 95.6023 111.721 92.6784 122.912C91.2094 128.535 90.2262 133.669 89.6102 137.398C89.3021 139.263 89.0856 140.778 88.9459 141.828C88.8761 142.354 88.8254 142.763 88.7922 143.041C88.7755 143.181 88.7632 143.288 88.755 143.36C88.7509 143.396 88.7478 143.424 88.7458 143.443C88.7447 143.452 88.744 143.459 88.7434 143.464C88.7431 143.467 88.7429 143.469 88.7428 143.47C88.7427 143.471 88.7427 143.471 88.7426 143.472C88.7426 143.472 88.7425 143.472 89.7368 143.579ZM69.6401 91.8863C77.1512 99.3974 81.9465 112.266 84.8602 123.418C86.31 128.966 87.2814 134.039 87.8902 137.724C88.1945 139.566 88.408 141.06 88.5452 142.092C88.6138 142.608 88.6634 143.008 88.6956 143.279C88.7118 143.414 88.7236 143.516 88.7313 143.585C88.7352 143.619 88.7381 143.645 88.7399 143.662C88.7409 143.67 88.7415 143.676 88.742 143.68C88.7422 143.682 88.7423 143.684 88.7424 143.685C88.7425 143.685 88.7425 143.685 88.7425 143.685C88.7425 143.686 88.7425 143.685 89.7368 143.579C90.7312 143.472 90.7311 143.472 90.7311 143.472C90.731 143.471 90.731 143.471 90.7309 143.47C90.7308 143.469 90.7305 143.467 90.7303 143.464C90.7297 143.459 90.729 143.452 90.7279 143.443C90.7258 143.424 90.7228 143.396 90.7187 143.36C90.7105 143.288 90.6982 143.181 90.6815 143.041C90.6483 142.763 90.5976 142.354 90.5278 141.828C90.3881 140.778 90.1716 139.263 89.8635 137.398C89.2475 133.669 88.2643 128.535 86.7953 122.912C83.8714 111.721 78.9718 98.3896 71.0543 90.472L69.6401 91.8863ZM17.9474 71.7895C17.8408 72.7838 17.8408 72.7838 17.8409 72.7838C17.8411 72.7838 17.8414 72.7838 17.8418 72.7839C17.8427 72.784 17.8441 72.7841 17.8461 72.7844C17.8501 72.7848 17.8564 72.7855 17.8648 72.7864C17.8817 72.7883 17.9073 72.7911 17.9415 72.795C18.0099 72.8027 18.1126 72.8145 18.2478 72.8307C18.5181 72.863 18.9184 72.9125 19.4343 72.9811C20.4661 73.1183 21.9601 73.3318 23.8022 73.6361C27.4875 74.2449 32.5599 75.2163 38.1087 76.6661C49.2606 79.5798 62.129 84.3752 69.6401 91.8863L71.0543 90.472C63.1367 82.5545 49.8051 77.655 38.6143 74.731C32.9917 73.262 27.857 72.2788 24.1282 71.6628C22.2631 71.3547 20.7482 71.1382 19.6979 70.9985C19.1727 70.9287 18.7636 70.8781 18.4849 70.8448C18.3455 70.8281 18.2387 70.8158 18.1663 70.8076C18.1301 70.8036 18.1025 70.8005 18.0836 70.7984C18.0742 70.7974 18.067 70.7966 18.0621 70.7961C18.0596 70.7958 18.0577 70.7956 18.0563 70.7954C18.0556 70.7953 18.055 70.7953 18.0547 70.7952C18.0542 70.7952 18.0539 70.7952 17.9474 71.7895ZM69.6401 51.6927C62.129 59.2038 49.2606 63.9991 38.1087 66.9129C32.5599 68.3626 27.4875 69.334 23.8022 69.9429C21.9601 70.2472 20.4661 70.4606 19.4343 70.5979C18.9184 70.6665 18.5181 70.716 18.2478 70.7483C18.1126 70.7644 18.0099 70.7762 17.9415 70.784C17.9073 70.7878 17.8817 70.7907 17.8648 70.7925C17.8564 70.7935 17.8501 70.7942 17.8461 70.7946C17.8441 70.7948 17.8427 70.795 17.8418 70.7951C17.8414 70.7951 17.8411 70.7951 17.8409 70.7952C17.8408 70.7952 17.8408 70.7952 17.9474 71.7895C18.0539 72.7838 18.0542 72.7838 18.0547 72.7837C18.055 72.7837 18.0556 72.7836 18.0563 72.7835C18.0577 72.7834 18.0596 72.7832 18.0621 72.7829C18.067 72.7824 18.0742 72.7816 18.0836 72.7805C18.1025 72.7785 18.1301 72.7754 18.1663 72.7713C18.2387 72.7631 18.3455 72.7508 18.4849 72.7342C18.7636 72.7009 19.1727 72.6503 19.6979 72.5804C20.7482 72.4407 22.2631 72.2242 24.1282 71.9161C27.857 71.3001 32.9917 70.317 38.6143 68.8479C49.8051 65.924 63.1367 61.0245 71.0543 53.1069L69.6401 51.6927ZM89.7368 0C88.7425 -0.106528 88.7425 -0.106566 88.7425 -0.106464C88.7425 -0.106242 88.7425 -0.105999 88.7424 -0.105557C88.7423 -0.104672 88.7422 -0.103227 88.742 -0.101226C88.7415 -0.0972233 88.7409 -0.090995 88.7399 -0.082569C88.7381 -0.0657167 88.7352 -0.0400736 88.7313 -0.00586263C88.7236 0.0625601 88.7118 0.16525 88.6956 0.300424C88.6634 0.570779 88.6138 0.971031 88.5452 1.48692C88.408 2.51876 88.1945 4.01275 87.8902 5.85482C87.2814 9.54018 86.31 14.6126 84.8602 20.1614C81.9465 31.3133 77.1512 44.1816 69.6401 51.6927L71.0543 53.1069C78.9718 45.1893 83.8714 31.8578 86.7953 20.6669C88.2643 15.0444 89.2475 9.90968 89.8635 6.1808C90.1716 4.31576 90.3881 2.80084 90.5278 1.75056C90.5976 1.22538 90.6483 0.816264 90.6815 0.537516C90.6982 0.398138 90.7105 0.291343 90.7187 0.218919C90.7228 0.182706 90.7258 0.155085 90.7279 0.136279C90.729 0.126876 90.7297 0.119677 90.7303 0.114709C90.7305 0.112225 90.7308 0.110299 90.7309 0.108935C90.731 0.108252 90.731 0.107651 90.7311 0.107309C90.7311 0.106848 90.7312 0.106528 89.7368 0ZM281.054 131.735C269.686 120.366 262.467 100.948 258.093 84.2106C255.914 75.869 254.454 68.2448 253.539 62.7059C253.082 59.937 252.761 57.6908 252.554 56.1384C252.451 55.3623 252.376 54.7597 252.328 54.3521C252.303 54.1483 252.285 53.9932 252.274 53.8896C252.268 53.8377 252.264 53.7988 252.261 53.773C252.259 53.7601 252.258 53.7506 252.258 53.7443C252.257 53.7412 252.257 53.7389 252.257 53.7374C252.257 53.7367 252.257 53.7363 252.257 53.7359C252.257 53.7357 252.257 53.7356 251.262 53.8422C250.268 53.9487 250.268 53.9491 250.268 53.9497C250.268 53.9502 250.268 53.951 250.268 53.9519C250.269 53.9539 250.269 53.9566 250.269 53.9602C250.27 53.9675 250.271 53.978 250.273 53.9919C250.276 54.0196 250.28 54.0605 250.286 54.1143C250.299 54.222 250.317 54.3811 250.342 54.5892C250.391 55.0052 250.467 55.6166 250.572 56.4021C250.78 57.9729 251.104 60.24 251.566 63.0319C252.488 68.6143 253.96 76.3008 256.158 84.7162C260.542 101.493 267.865 121.374 279.64 133.149L281.054 131.735ZM358.947 161.526C359.053 160.532 359.053 160.532 359.053 160.532C359.052 160.532 359.052 160.532 359.051 160.532C359.05 160.532 359.048 160.531 359.044 160.531C359.038 160.53 359.029 160.529 359.016 160.528C358.99 160.525 358.951 160.521 358.899 160.515C358.796 160.503 358.64 160.485 358.437 160.461C358.029 160.412 357.426 160.338 356.65 160.235C355.098 160.028 352.852 159.707 350.083 159.25C344.544 158.335 336.92 156.875 328.578 154.695C311.841 150.322 292.422 143.103 281.054 131.735L279.64 133.149C291.414 144.924 311.296 152.247 328.073 156.63C336.488 158.829 344.174 160.301 349.757 161.223C352.549 161.684 354.816 162.008 356.387 162.217C357.172 162.322 357.784 162.397 358.2 162.447C358.408 162.472 358.567 162.49 358.674 162.502C358.728 162.508 358.769 162.513 358.797 162.516C358.811 162.517 358.821 162.519 358.828 162.519C358.832 162.52 358.835 162.52 358.837 162.52C358.838 162.52 358.839 162.521 358.839 162.521C358.84 162.521 358.84 162.521 358.947 161.526ZM281.054 191.318C292.422 179.95 311.841 172.731 328.578 168.358C336.92 166.178 344.544 164.718 350.083 163.803C352.852 163.346 355.098 163.025 356.65 162.818C357.426 162.715 358.029 162.64 358.437 162.592C358.64 162.567 358.796 162.549 358.899 162.538C358.951 162.532 358.99 162.528 359.016 162.525C359.029 162.523 359.038 162.522 359.044 162.522C359.048 162.521 359.05 162.521 359.051 162.521C359.052 162.521 359.052 162.521 359.053 162.521C359.053 162.521 359.053 162.521 358.947 161.526C358.84 160.532 358.84 160.532 358.839 160.532C358.839 160.532 358.838 160.532 358.837 160.532C358.835 160.533 358.832 160.533 358.828 160.533C358.821 160.534 358.811 160.535 358.797 160.537C358.769 160.54 358.728 160.544 358.674 160.55C358.567 160.563 358.408 160.581 358.2 160.606C357.784 160.655 357.172 160.731 356.387 160.836C354.816 161.044 352.549 161.368 349.757 161.83C344.174 162.752 336.488 164.224 328.073 166.422C311.296 170.806 291.414 178.129 279.64 189.904L281.054 191.318ZM251.262 269.211C252.257 269.317 252.257 269.317 252.257 269.317C252.257 269.316 252.257 269.316 252.257 269.315C252.257 269.314 252.257 269.312 252.258 269.308C252.258 269.302 252.259 269.293 252.261 269.28C252.264 269.254 252.268 269.215 252.274 269.163C252.285 269.06 252.303 268.904 252.328 268.701C252.376 268.293 252.451 267.69 252.554 266.914C252.761 265.362 253.082 263.116 253.539 260.347C254.454 254.808 255.914 247.184 258.093 238.842C262.467 222.105 269.686 202.686 281.054 191.318L279.64 189.904C267.865 201.679 260.542 221.56 256.158 238.337C253.96 246.752 252.488 254.438 251.566 260.021C251.104 262.813 250.78 265.08 250.572 266.651C250.467 267.436 250.391 268.048 250.342 268.464C250.317 268.672 250.299 268.831 250.286 268.938C250.28 268.992 250.276 269.033 250.273 269.061C250.271 269.075 250.27 269.085 250.269 269.092C250.269 269.096 250.269 269.099 250.268 269.101C250.268 269.102 250.268 269.103 250.268 269.103C250.268 269.104 250.268 269.104 251.262 269.211ZM221.471 191.318C232.839 202.686 240.058 222.105 244.431 238.842C246.611 247.184 248.071 254.808 248.986 260.347C249.443 263.116 249.764 265.362 249.971 266.914C250.074 267.69 250.148 268.293 250.197 268.701C250.221 268.904 250.239 269.06 250.251 269.163C250.257 269.215 250.261 269.254 250.264 269.28C250.265 269.293 250.266 269.302 250.267 269.308C250.267 269.312 250.268 269.314 250.268 269.315C250.268 269.316 250.268 269.316 250.268 269.317C250.268 269.317 250.268 269.317 251.262 269.211C252.257 269.104 252.257 269.104 252.257 269.103C252.256 269.103 252.256 269.102 252.256 269.101C252.256 269.099 252.256 269.096 252.255 269.092C252.255 269.085 252.253 269.075 252.252 269.061C252.249 269.033 252.244 268.992 252.238 268.938C252.226 268.831 252.208 268.672 252.183 268.464C252.133 268.048 252.058 267.436 251.953 266.651C251.744 265.08 251.42 262.813 250.959 260.021C250.037 254.438 248.565 246.752 246.366 238.337C241.983 221.56 234.66 201.679 222.885 189.904L221.471 191.318ZM143.578 161.526C143.472 162.521 143.472 162.521 143.472 162.521C143.472 162.521 143.473 162.521 143.473 162.521C143.475 162.521 143.477 162.521 143.48 162.522C143.487 162.522 143.496 162.523 143.509 162.525C143.535 162.528 143.574 162.532 143.626 162.538C143.729 162.549 143.884 162.567 144.088 162.592C144.496 162.64 145.098 162.715 145.874 162.818C147.427 163.025 149.673 163.346 152.442 163.803C157.981 164.718 165.605 166.178 173.947 168.358C190.684 172.731 210.102 179.95 221.471 191.318L222.885 189.904C211.11 178.129 191.229 170.806 174.452 166.422C166.037 164.224 158.35 162.752 152.768 161.83C149.976 161.368 147.709 161.044 146.138 160.836C145.353 160.731 144.741 160.655 144.325 160.606C144.117 160.581 143.958 160.563 143.85 160.55C143.796 160.544 143.756 160.54 143.728 160.537C143.714 160.535 143.703 160.534 143.696 160.533C143.693 160.533 143.69 160.533 143.688 160.532C143.687 160.532 143.686 160.532 143.686 160.532C143.685 160.532 143.685 160.532 143.578 161.526ZM221.471 131.735C210.102 143.103 190.684 150.322 173.947 154.695C165.605 156.875 157.981 158.335 152.442 159.25C149.673 159.707 147.427 160.028 145.874 160.235C145.098 160.338 144.496 160.412 144.088 160.461C143.884 160.485 143.729 160.503 143.626 160.515C143.574 160.521 143.535 160.525 143.509 160.528C143.496 160.529 143.487 160.53 143.48 160.531C143.477 160.531 143.475 160.532 143.473 160.532C143.473 160.532 143.472 160.532 143.472 160.532C143.472 160.532 143.472 160.532 143.578 161.526C143.685 162.521 143.685 162.521 143.686 162.521C143.686 162.521 143.687 162.52 143.688 162.52C143.69 162.52 143.693 162.52 143.696 162.519C143.703 162.519 143.714 162.517 143.728 162.516C143.756 162.513 143.796 162.508 143.85 162.502C143.958 162.49 144.117 162.472 144.325 162.447C144.741 162.397 145.353 162.322 146.138 162.217C147.709 162.008 149.976 161.684 152.768 161.223C158.35 160.301 166.037 158.829 174.452 156.63C191.229 152.247 211.11 144.924 222.885 133.149L221.471 131.735ZM251.262 53.8422C250.268 53.7356 250.268 53.7357 250.268 53.7359C250.268 53.7363 250.268 53.7367 250.268 53.7374C250.268 53.7389 250.267 53.7412 250.267 53.7443C250.266 53.7506 250.265 53.7601 250.264 53.773C250.261 53.7988 250.257 53.8377 250.251 53.8896C250.239 53.9932 250.221 54.1483 250.197 54.3521C250.148 54.7597 250.074 55.3623 249.971 56.1384C249.764 57.6908 249.443 59.937 248.986 62.7059C248.071 68.2448 246.611 75.869 244.431 84.2106C240.058 100.948 232.839 120.366 221.471 131.735L222.885 133.149C234.66 121.374 241.983 101.493 246.366 84.7162C248.565 76.3008 250.037 68.6143 250.959 63.0319C251.42 60.24 251.744 57.9729 251.953 56.4021C252.058 55.6166 252.133 55.0052 252.183 54.5892C252.208 54.3811 252.226 54.222 252.238 54.1143C252.244 54.0605 252.249 54.0196 252.252 53.9919C252.253 53.978 252.255 53.9675 252.255 53.9602C252.256 53.9566 252.256 53.9539 252.256 53.9519C252.256 53.951 252.256 53.9502 252.257 53.9497C252.257 53.9491 252.257 53.9487 251.262 53.8422ZM89.7368 161.526C88.7425 161.633 88.7426 161.633 88.7426 161.634C88.7427 161.634 88.7427 161.635 88.7428 161.636C88.743 161.637 88.7433 161.64 88.7436 161.643C88.7443 161.649 88.7452 161.658 88.7465 161.669C88.7491 161.693 88.7529 161.727 88.758 161.772C88.7682 161.862 88.7835 161.995 88.8042 162.169C88.8457 162.516 88.9088 163.026 88.996 163.682C89.1703 164.992 89.4405 166.883 89.8252 169.212C90.5943 173.867 91.8218 180.278 93.6557 187.297C97.3093 201.28 103.421 217.887 113.267 227.733L114.681 226.319C105.241 216.879 99.2342 200.736 95.5907 186.791C93.7761 179.846 92.5604 173.498 91.7984 168.886C91.4176 166.58 91.1504 164.71 90.9785 163.418C90.8926 162.772 90.8306 162.27 90.7901 161.931C90.7699 161.762 90.755 161.633 90.7453 161.547C90.7404 161.504 90.7368 161.472 90.7345 161.45C90.7333 161.44 90.7325 161.432 90.7319 161.427C90.7316 161.424 90.7314 161.422 90.7313 161.421C90.7312 161.421 90.7312 161.42 90.7312 161.42C90.7311 161.42 90.7311 161.42 89.7368 161.526ZM66.2069 227.733C76.053 217.887 82.1644 201.28 85.818 187.297C87.6519 180.278 88.8794 173.867 89.6485 169.212C90.0331 166.883 90.3034 164.992 90.4777 163.682C90.5648 163.026 90.628 162.516 90.6695 162.169C90.6902 161.995 90.7055 161.862 90.7157 161.772C90.7208 161.727 90.7246 161.693 90.7272 161.669C90.7285 161.658 90.7294 161.649 90.7301 161.643C90.7304 161.64 90.7307 161.637 90.7308 161.636C90.7309 161.635 90.731 161.634 90.7311 161.634C90.7311 161.633 90.7311 161.633 89.7368 161.526C88.7425 161.42 88.7425 161.42 88.7425 161.42C88.7425 161.42 88.7424 161.421 88.7424 161.421C88.7423 161.422 88.7421 161.424 88.7418 161.427C88.7412 161.432 88.7404 161.44 88.7392 161.45C88.7368 161.472 88.7332 161.504 88.7284 161.547C88.7187 161.633 88.7038 161.762 88.6836 161.931C88.6431 162.27 88.5811 162.772 88.4951 163.418C88.3233 164.71 88.0561 166.58 87.6752 168.886C86.9133 173.498 85.6976 179.846 83.883 186.791C80.2395 200.736 74.2323 216.879 64.7926 226.319L66.2069 227.733ZM0 251.263C0.106528 252.257 0.106883 252.257 0.107415 252.257C0.107826 252.257 0.108534 252.257 0.109357 252.257C0.111003 252.257 0.11335 252.257 0.116394 252.256C0.122484 252.256 0.131361 252.255 0.142993 252.253C0.166256 252.251 0.200535 252.247 0.245551 252.242C0.335581 252.232 0.468561 252.217 0.642258 252.196C0.989644 252.154 1.49993 252.091 2.15524 252.004C3.46579 251.83 5.35682 251.559 7.68526 251.175C12.3409 250.406 18.7515 249.178 25.7705 247.344C39.7541 243.691 56.3607 237.579 66.2069 227.733L64.7926 226.319C55.353 235.759 39.2097 241.766 25.2649 245.409C18.3197 247.224 11.9714 248.44 7.35927 249.202C5.05381 249.582 3.18371 249.85 1.8916 250.021C1.24558 250.107 0.744159 250.169 0.405167 250.21C0.235674 250.23 0.106798 250.245 0.0207696 250.255C-0.0222443 250.26 -0.0545454 250.263 -0.0758549 250.266C-0.0865097 250.267 -0.0944164 250.268 -0.0995402 250.268C-0.102102 250.268 -0.103968 250.269 -0.105134 250.269C-0.105718 250.269 -0.106066 250.269 -0.106358 250.269C-0.106531 250.269 -0.106528 250.269 0 251.263ZM66.2069 274.793C56.3607 264.947 39.7541 258.836 25.7705 255.182C18.7515 253.348 12.3409 252.121 7.68526 251.352C5.35682 250.967 3.46579 250.697 2.15524 250.522C1.49993 250.435 0.989644 250.372 0.642258 250.331C0.468562 250.31 0.335581 250.294 0.245551 250.284C0.200536 250.279 0.166257 250.275 0.142993 250.273C0.131362 250.272 0.122484 250.271 0.116395 250.27C0.11335 250.27 0.111003 250.269 0.109357 250.269C0.108534 250.269 0.107827 250.269 0.107415 250.269C0.106884 250.269 0.106528 250.269 0 251.263C-0.106528 252.257 -0.106531 252.257 -0.106358 252.257C-0.106066 252.258 -0.105718 252.258 -0.105135 252.258C-0.103969 252.258 -0.102102 252.258 -0.0995405 252.258C-0.0944167 252.259 -0.08651 252.26 -0.0758553 252.261C-0.0545457 252.263 -0.0222446 252.267 0.0207693 252.272C0.106798 252.281 0.235674 252.296 0.405166 252.316C0.744159 252.357 1.24558 252.419 1.8916 252.505C3.18371 252.677 5.05381 252.944 7.35927 253.325C11.9714 254.087 18.3197 255.302 25.2649 257.117C39.2097 260.76 55.353 266.768 64.7926 276.207L66.2069 274.793ZM89.7368 341C90.7311 340.893 90.7311 340.893 90.7311 340.893C90.731 340.892 90.7309 340.891 90.7308 340.891C90.7307 340.889 90.7304 340.887 90.7301 340.884C90.7294 340.878 90.7285 340.869 90.7272 340.857C90.7246 340.834 90.7208 340.799 90.7157 340.754C90.7055 340.664 90.6902 340.531 90.6695 340.358C90.628 340.01 90.5648 339.5 90.4777 338.845C90.3034 337.534 90.0331 335.643 89.6485 333.315C88.8794 328.659 87.6519 322.249 85.818 315.23C82.1644 301.246 76.053 284.639 66.2069 274.793L64.7926 276.207C74.2323 285.647 80.2395 301.79 83.883 315.735C85.6976 322.68 86.9133 329.029 87.6752 333.641C88.0561 335.946 88.3233 337.816 88.4951 339.108C88.5811 339.754 88.6431 340.256 88.6836 340.595C88.7038 340.764 88.7187 340.893 88.7284 340.979C88.7332 341.022 88.7368 341.055 88.7392 341.076C88.7404 341.087 88.7412 341.094 88.7418 341.1C88.7421 341.102 88.7423 341.104 88.7424 341.105C88.7424 341.106 88.7425 341.106 88.7425 341.106C88.7425 341.107 88.7425 341.107 89.7368 341ZM113.267 274.793C103.421 284.639 97.3093 301.246 93.6557 315.23C91.8218 322.249 90.5943 328.659 89.8252 333.315C89.4405 335.643 89.1703 337.534 88.996 338.845C88.9088 339.5 88.8457 340.01 88.8042 340.358C88.7835 340.531 88.7682 340.664 88.758 340.754C88.7529 340.799 88.7491 340.834 88.7465 340.857C88.7452 340.869 88.7443 340.878 88.7436 340.884C88.7433 340.887 88.743 340.889 88.7428 340.891C88.7427 340.891 88.7427 340.892 88.7426 340.893C88.7426 340.893 88.7425 340.893 89.7368 341C90.7311 341.107 90.7311 341.107 90.7312 341.106C90.7312 341.106 90.7312 341.106 90.7313 341.105C90.7314 341.104 90.7316 341.102 90.7319 341.1C90.7325 341.094 90.7333 341.087 90.7345 341.076C90.7368 341.055 90.7404 341.022 90.7453 340.979C90.755 340.893 90.7699 340.764 90.7901 340.595C90.8306 340.256 90.8926 339.754 90.9785 339.108C91.1504 337.816 91.4176 335.946 91.7984 333.641C92.5604 329.029 93.7761 322.68 95.5907 315.735C99.2342 301.79 105.241 285.647 114.681 276.207L113.267 274.793ZM179.474 251.263C179.367 250.269 179.367 250.269 179.366 250.269C179.366 250.269 179.365 250.269 179.364 250.269C179.363 250.269 179.36 250.27 179.357 250.27C179.351 250.271 179.342 250.272 179.331 250.273C179.307 250.275 179.273 250.279 179.228 250.284C179.138 250.294 179.005 250.31 178.831 250.331C178.484 250.372 177.974 250.435 177.318 250.522C176.008 250.697 174.117 250.967 171.788 251.352C167.133 252.121 160.722 253.348 153.703 255.182C139.72 258.836 123.113 264.947 113.267 274.793L114.681 276.207C124.121 266.768 140.264 260.76 154.209 257.117C161.154 255.302 167.502 254.087 172.114 253.325C174.42 252.944 176.29 252.677 177.582 252.505C178.228 252.419 178.73 252.357 179.069 252.316C179.238 252.296 179.367 252.281 179.453 252.272C179.496 252.267 179.528 252.263 179.55 252.261C179.56 252.26 179.568 252.259 179.573 252.258C179.576 252.258 179.578 252.258 179.579 252.258C179.579 252.258 179.58 252.258 179.58 252.257C179.58 252.257 179.58 252.257 179.474 251.263ZM113.267 227.733C123.113 237.579 139.72 243.691 153.703 247.344C160.722 249.178 167.133 250.406 171.788 251.175C174.117 251.559 176.008 251.83 177.318 252.004C177.974 252.091 178.484 252.154 178.831 252.196C179.005 252.217 179.138 252.232 179.228 252.242C179.273 252.247 179.307 252.251 179.331 252.253C179.342 252.255 179.351 252.256 179.357 252.256C179.36 252.257 179.363 252.257 179.364 252.257C179.365 252.257 179.366 252.257 179.366 252.257C179.367 252.257 179.367 252.257 179.474 251.263C179.58 250.269 179.58 250.269 179.58 250.269C179.58 250.269 179.579 250.269 179.579 250.269C179.578 250.269 179.576 250.268 179.573 250.268C179.568 250.268 179.56 250.267 179.55 250.266C179.528 250.263 179.496 250.26 179.453 250.255C179.367 250.245 179.238 250.23 179.069 250.21C178.73 250.169 178.228 250.107 177.582 250.021C176.29 249.85 174.42 249.582 172.114 249.202C167.502 248.44 161.154 247.224 154.209 245.409C140.264 241.766 124.121 235.759 114.681 226.319L113.267 227.733Z" fill="url(#paint0_linear_7_138)" mask="url(#path-1-inside-1_7_138)"/>
</g>
<defs>
<linearGradient id="paint0_linear_7_138" x1="0" y1="0" x2="340.552" y2="358.475" gradientUnits="userSpaceOnUse">
<stop stop-color="white"/>
<stop offset="1" stop-color="white" stop-opacity="0"/>
</linearGradient>
</defs>
</svg>
