<svg width="21" height="19" viewBox="0 0 21 19" fill="none" xmlns="http://www.w3.org/2000/svg">
<path fill-rule="evenodd" clip-rule="evenodd" d="M5.50221 0.00012207C5.50221 0.00012207 5.72291 2.06012 6.58259 2.9198C7.44226 3.77947 9.50226 4.00018 9.50226 4.00018C9.50226 4.00018 7.44226 4.22088 6.58259 5.08055C5.72291 5.94023 5.50221 8.00023 5.50221 8.00023C5.50221 8.00023 5.28151 5.94023 4.42183 5.08055C3.56216 4.22088 1.50216 4.00018 1.50216 4.00018C1.50216 4.00018 3.56216 3.77947 4.42183 2.9198C5.28151 2.06012 5.50221 0.00012207 5.50221 0.00012207ZM14.4996 3.00003C14.4996 3.00003 14.8307 6.09003 16.1202 7.37954C17.4097 8.66905 20.4997 9.00011 20.4997 9.00011C20.4997 9.00011 17.4097 9.33117 16.1202 10.6207C14.8307 11.9102 14.4996 15.0002 14.4996 15.0002C14.4996 15.0002 14.1686 11.9102 12.8791 10.6207C11.5896 9.33117 8.49956 9.00011 8.49956 9.00011C8.49956 9.00011 11.5896 8.66905 12.8791 7.37954C14.1686 6.09003 14.4996 3.00003 14.4996 3.00003ZM6.85103 12.6494C5.77644 11.5748 5.50056 8.99985 5.50056 8.99985C5.50056 8.99985 5.22468 11.5748 4.15008 12.6494C3.07549 13.724 0.500488 13.9999 0.500488 13.9999C0.500488 13.9999 3.07549 14.2758 4.15008 15.3504C5.22468 16.425 5.50056 19 5.50056 19C5.50056 19 5.77644 16.425 6.85103 15.3504C7.92562 14.2758 10.5006 13.9999 10.5006 13.9999C10.5006 13.9999 7.92562 13.724 6.85103 12.6494Z" fill="url(#paint0_linear_28_1394)"/>
<defs>
<linearGradient id="paint0_linear_28_1394" x1="1.85338" y1="1.50011" x2="21.6093" y2="3.32571" gradientUnits="userSpaceOnUse">
<stop offset="0.0695937" stop-color="#4467FF"/>
<stop offset="0.816425" stop-color="#7241FF"/>
</linearGradient>
</defs>
</svg>
